<mxfile host="Electron" agent="Mozilla/5.0 (Windows NT 10.0; Win64; x64) AppleWebKit/537.36 (KHTML, like Gecko) draw.io/26.0.4 Chrome/128.0.6613.186 Electron/32.2.5 Safari/537.36" version="26.0.4">
  <diagram name="Page-1" id="ijO3nh55HH9mYvoXjniC">
    <mxGraphModel dx="1956" dy="887" grid="1" gridSize="10" guides="1" tooltips="1" connect="1" arrows="1" fold="1" page="1" pageScale="1" pageWidth="850" pageHeight="1100" math="0" shadow="0">
      <root>
        <mxCell id="0" />
        <mxCell id="1" parent="0" />
        <mxCell id="Zmj4TJ5gTMqtPXpSD-QX-2" value="" style="whiteSpace=wrap;html=1;aspect=fixed;strokeWidth=1;movable=0;resizable=0;rotatable=0;deletable=0;editable=0;locked=1;connectable=0;" parent="1" vertex="1">
          <mxGeometry x="170" y="20" width="740" height="740" as="geometry" />
        </mxCell>
        <mxCell id="Zmj4TJ5gTMqtPXpSD-QX-12" style="edgeStyle=orthogonalEdgeStyle;rounded=0;orthogonalLoop=1;jettySize=auto;html=1;entryX=0;entryY=0.5;entryDx=0;entryDy=0;" parent="1" source="Zmj4TJ5gTMqtPXpSD-QX-3" target="Zmj4TJ5gTMqtPXpSD-QX-10" edge="1">
          <mxGeometry relative="1" as="geometry" />
        </mxCell>
        <mxCell id="Zmj4TJ5gTMqtPXpSD-QX-13" style="edgeStyle=orthogonalEdgeStyle;rounded=0;orthogonalLoop=1;jettySize=auto;html=1;" parent="1" source="Zmj4TJ5gTMqtPXpSD-QX-3" target="Zmj4TJ5gTMqtPXpSD-QX-11" edge="1">
          <mxGeometry relative="1" as="geometry" />
        </mxCell>
        <mxCell id="Zmj4TJ5gTMqtPXpSD-QX-18" style="edgeStyle=orthogonalEdgeStyle;rounded=0;orthogonalLoop=1;jettySize=auto;html=1;entryX=0;entryY=0.5;entryDx=0;entryDy=0;" parent="1" source="Zmj4TJ5gTMqtPXpSD-QX-3" target="Zmj4TJ5gTMqtPXpSD-QX-17" edge="1">
          <mxGeometry relative="1" as="geometry" />
        </mxCell>
        <mxCell id="Zmj4TJ5gTMqtPXpSD-QX-3" value="Geust" style="shape=umlActor;verticalLabelPosition=bottom;verticalAlign=top;html=1;outlineConnect=0;" parent="1" vertex="1">
          <mxGeometry x="80" y="190" width="30" height="60" as="geometry" />
        </mxCell>
        <mxCell id="Zmj4TJ5gTMqtPXpSD-QX-25" style="edgeStyle=orthogonalEdgeStyle;rounded=0;orthogonalLoop=1;jettySize=auto;html=1;" parent="1" source="Zmj4TJ5gTMqtPXpSD-QX-4" edge="1">
          <mxGeometry relative="1" as="geometry">
            <mxPoint x="290" y="380" as="targetPoint" />
          </mxGeometry>
        </mxCell>
        <mxCell id="Zmj4TJ5gTMqtPXpSD-QX-26" style="edgeStyle=orthogonalEdgeStyle;rounded=0;orthogonalLoop=1;jettySize=auto;html=1;entryX=0;entryY=0.5;entryDx=0;entryDy=0;" parent="1" source="Zmj4TJ5gTMqtPXpSD-QX-4" target="Zmj4TJ5gTMqtPXpSD-QX-15" edge="1">
          <mxGeometry relative="1" as="geometry" />
        </mxCell>
        <mxCell id="Zmj4TJ5gTMqtPXpSD-QX-55" style="edgeStyle=orthogonalEdgeStyle;rounded=0;orthogonalLoop=1;jettySize=auto;html=1;" parent="1" source="Zmj4TJ5gTMqtPXpSD-QX-4" edge="1">
          <mxGeometry relative="1" as="geometry">
            <mxPoint x="95" y="280" as="targetPoint" />
          </mxGeometry>
        </mxCell>
        <mxCell id="Zmj4TJ5gTMqtPXpSD-QX-4" value="Student" style="shape=umlActor;verticalLabelPosition=bottom;verticalAlign=top;html=1;outlineConnect=0;" parent="1" vertex="1">
          <mxGeometry x="80" y="380" width="30" height="60" as="geometry" />
        </mxCell>
        <mxCell id="Zmj4TJ5gTMqtPXpSD-QX-23" style="edgeStyle=orthogonalEdgeStyle;rounded=0;orthogonalLoop=1;jettySize=auto;html=1;entryX=0;entryY=0.5;entryDx=0;entryDy=0;" parent="1" source="Zmj4TJ5gTMqtPXpSD-QX-5" target="Zmj4TJ5gTMqtPXpSD-QX-20" edge="1">
          <mxGeometry relative="1" as="geometry" />
        </mxCell>
        <mxCell id="Zmj4TJ5gTMqtPXpSD-QX-24" style="edgeStyle=orthogonalEdgeStyle;rounded=0;orthogonalLoop=1;jettySize=auto;html=1;entryX=0;entryY=0.5;entryDx=0;entryDy=0;" parent="1" source="Zmj4TJ5gTMqtPXpSD-QX-5" target="Zmj4TJ5gTMqtPXpSD-QX-21" edge="1">
          <mxGeometry relative="1" as="geometry" />
        </mxCell>
        <mxCell id="10jIt0kjexPX6TtDOLrQ-1" style="edgeStyle=orthogonalEdgeStyle;rounded=0;orthogonalLoop=1;jettySize=auto;html=1;entryX=0.5;entryY=1;entryDx=0;entryDy=0;" edge="1" parent="1" source="Zmj4TJ5gTMqtPXpSD-QX-5" target="Zmj4TJ5gTMqtPXpSD-QX-15">
          <mxGeometry relative="1" as="geometry">
            <Array as="points">
              <mxPoint x="200" y="610" />
              <mxPoint x="200" y="530" />
              <mxPoint x="350" y="530" />
            </Array>
          </mxGeometry>
        </mxCell>
        <mxCell id="Zmj4TJ5gTMqtPXpSD-QX-5" value="Teacher" style="shape=umlActor;verticalLabelPosition=bottom;verticalAlign=top;html=1;outlineConnect=0;" parent="1" vertex="1">
          <mxGeometry x="80" y="580" width="30" height="60" as="geometry" />
        </mxCell>
        <mxCell id="Zmj4TJ5gTMqtPXpSD-QX-6" value="GoLearning" style="rounded=0;whiteSpace=wrap;html=1;" parent="1" vertex="1">
          <mxGeometry x="440" y="20" width="200" height="50" as="geometry" />
        </mxCell>
        <mxCell id="Zmj4TJ5gTMqtPXpSD-QX-10" value="view course details" style="ellipse;whiteSpace=wrap;html=1;" parent="1" vertex="1">
          <mxGeometry x="290" y="170" width="120" height="60" as="geometry" />
        </mxCell>
        <mxCell id="Zmj4TJ5gTMqtPXpSD-QX-11" value="Register" style="ellipse;whiteSpace=wrap;html=1;" parent="1" vertex="1">
          <mxGeometry x="290" y="250" width="120" height="60" as="geometry" />
        </mxCell>
        <mxCell id="Zmj4TJ5gTMqtPXpSD-QX-14" value="Enroll in a course" style="ellipse;whiteSpace=wrap;html=1;" parent="1" vertex="1">
          <mxGeometry x="290" y="350" width="120" height="60" as="geometry" />
        </mxCell>
        <mxCell id="Zmj4TJ5gTMqtPXpSD-QX-15" value="Access to his&lt;div&gt;courses&lt;/div&gt;" style="ellipse;whiteSpace=wrap;html=1;" parent="1" vertex="1">
          <mxGeometry x="290" y="430" width="120" height="60" as="geometry" />
        </mxCell>
        <mxCell id="Zmj4TJ5gTMqtPXpSD-QX-17" value="View catalog" style="ellipse;whiteSpace=wrap;html=1;" parent="1" vertex="1">
          <mxGeometry x="290" y="90" width="120" height="60" as="geometry" />
        </mxCell>
        <mxCell id="Zmj4TJ5gTMqtPXpSD-QX-31" style="edgeStyle=orthogonalEdgeStyle;rounded=0;orthogonalLoop=1;jettySize=auto;html=1;entryX=0;entryY=0.5;entryDx=0;entryDy=0;dashed=1;" parent="1" source="Zmj4TJ5gTMqtPXpSD-QX-20" target="Zmj4TJ5gTMqtPXpSD-QX-28" edge="1">
          <mxGeometry relative="1" as="geometry" />
        </mxCell>
        <mxCell id="Zmj4TJ5gTMqtPXpSD-QX-37" value="&amp;lt;&amp;lt;include&amp;gt;&amp;gt;" style="edgeLabel;html=1;align=center;verticalAlign=middle;resizable=0;points=[];" parent="Zmj4TJ5gTMqtPXpSD-QX-31" vertex="1" connectable="0">
          <mxGeometry x="-0.0231" y="-1" relative="1" as="geometry">
            <mxPoint y="-13" as="offset" />
          </mxGeometry>
        </mxCell>
        <mxCell id="Zmj4TJ5gTMqtPXpSD-QX-35" style="edgeStyle=orthogonalEdgeStyle;rounded=0;orthogonalLoop=1;jettySize=auto;html=1;entryX=0;entryY=0.5;entryDx=0;entryDy=0;dashed=1;" parent="1" source="Zmj4TJ5gTMqtPXpSD-QX-20" target="Zmj4TJ5gTMqtPXpSD-QX-29" edge="1">
          <mxGeometry relative="1" as="geometry" />
        </mxCell>
        <mxCell id="Zmj4TJ5gTMqtPXpSD-QX-36" style="edgeStyle=orthogonalEdgeStyle;rounded=0;orthogonalLoop=1;jettySize=auto;html=1;entryX=0;entryY=0.5;entryDx=0;entryDy=0;dashed=1;" parent="1" source="Zmj4TJ5gTMqtPXpSD-QX-20" target="Zmj4TJ5gTMqtPXpSD-QX-30" edge="1">
          <mxGeometry relative="1" as="geometry" />
        </mxCell>
        <mxCell id="Zmj4TJ5gTMqtPXpSD-QX-38" value="&amp;lt;include&amp;gt;&amp;gt;" style="edgeLabel;html=1;align=center;verticalAlign=middle;resizable=0;points=[];" parent="Zmj4TJ5gTMqtPXpSD-QX-36" vertex="1" connectable="0">
          <mxGeometry x="0.0588" y="-1" relative="1" as="geometry">
            <mxPoint y="13" as="offset" />
          </mxGeometry>
        </mxCell>
        <mxCell id="Zmj4TJ5gTMqtPXpSD-QX-39" value="&amp;lt;&amp;lt;include&amp;gt;&amp;gt;" style="edgeLabel;html=1;align=center;verticalAlign=middle;resizable=0;points=[];" parent="Zmj4TJ5gTMqtPXpSD-QX-36" vertex="1" connectable="0">
          <mxGeometry x="-0.5529" y="-2" relative="1" as="geometry">
            <mxPoint x="19" y="-2" as="offset" />
          </mxGeometry>
        </mxCell>
        <mxCell id="Zmj4TJ5gTMqtPXpSD-QX-49" style="edgeStyle=orthogonalEdgeStyle;rounded=0;orthogonalLoop=1;jettySize=auto;html=1;dashed=1;dashPattern=8 8;" parent="1" source="Zmj4TJ5gTMqtPXpSD-QX-20" edge="1">
          <mxGeometry relative="1" as="geometry">
            <mxPoint x="800" y="157.62966579861111" as="targetPoint" />
            <Array as="points">
              <mxPoint x="350" y="620" />
              <mxPoint x="801" y="620" />
              <mxPoint x="801" y="158" />
            </Array>
          </mxGeometry>
        </mxCell>
        <mxCell id="Zmj4TJ5gTMqtPXpSD-QX-52" value="&amp;lt;&amp;lt; include &amp;gt;&amp;gt;" style="edgeLabel;html=1;align=center;verticalAlign=middle;resizable=0;points=[];" parent="Zmj4TJ5gTMqtPXpSD-QX-49" vertex="1" connectable="0">
          <mxGeometry x="-0.1903" y="-2" relative="1" as="geometry">
            <mxPoint as="offset" />
          </mxGeometry>
        </mxCell>
        <mxCell id="Zmj4TJ5gTMqtPXpSD-QX-20" value="Course&lt;div&gt;Management&lt;/div&gt;" style="ellipse;whiteSpace=wrap;html=1;" parent="1" vertex="1">
          <mxGeometry x="290" y="550" width="120" height="60" as="geometry" />
        </mxCell>
        <mxCell id="Zmj4TJ5gTMqtPXpSD-QX-51" style="edgeStyle=orthogonalEdgeStyle;rounded=0;orthogonalLoop=1;jettySize=auto;html=1;entryX=1;entryY=1;entryDx=0;entryDy=0;dashed=1;dashPattern=8 8;" parent="1" source="Zmj4TJ5gTMqtPXpSD-QX-21" target="Zmj4TJ5gTMqtPXpSD-QX-27" edge="1">
          <mxGeometry relative="1" as="geometry">
            <Array as="points">
              <mxPoint x="350" y="710" />
              <mxPoint x="843" y="710" />
            </Array>
          </mxGeometry>
        </mxCell>
        <mxCell id="Zmj4TJ5gTMqtPXpSD-QX-53" value="&amp;lt;&amp;lt; include &amp;gt;&amp;gt;" style="edgeLabel;html=1;align=center;verticalAlign=middle;resizable=0;points=[];" parent="Zmj4TJ5gTMqtPXpSD-QX-51" vertex="1" connectable="0">
          <mxGeometry x="-0.2473" y="1" relative="1" as="geometry">
            <mxPoint as="offset" />
          </mxGeometry>
        </mxCell>
        <mxCell id="Zmj4TJ5gTMqtPXpSD-QX-21" value="Access to his&lt;div&gt;statistics&lt;/div&gt;" style="ellipse;whiteSpace=wrap;html=1;" parent="1" vertex="1">
          <mxGeometry x="290" y="630" width="120" height="60" as="geometry" />
        </mxCell>
        <mxCell id="Zmj4TJ5gTMqtPXpSD-QX-27" value="Authentication" style="ellipse;whiteSpace=wrap;html=1;" parent="1" vertex="1">
          <mxGeometry x="740" y="100" width="120" height="60" as="geometry" />
        </mxCell>
        <mxCell id="Zmj4TJ5gTMqtPXpSD-QX-28" value="Add Course" style="ellipse;whiteSpace=wrap;html=1;" parent="1" vertex="1">
          <mxGeometry x="560" y="470" width="120" height="60" as="geometry" />
        </mxCell>
        <mxCell id="Zmj4TJ5gTMqtPXpSD-QX-29" value="Update Course" style="ellipse;whiteSpace=wrap;html=1;" parent="1" vertex="1">
          <mxGeometry x="560" y="550" width="120" height="60" as="geometry" />
        </mxCell>
        <mxCell id="Zmj4TJ5gTMqtPXpSD-QX-30" value="Delete Course" style="ellipse;whiteSpace=wrap;html=1;" parent="1" vertex="1">
          <mxGeometry x="560" y="630" width="120" height="60" as="geometry" />
        </mxCell>
        <mxCell id="Zmj4TJ5gTMqtPXpSD-QX-40" style="edgeStyle=orthogonalEdgeStyle;rounded=0;orthogonalLoop=1;jettySize=auto;html=1;entryX=-0.003;entryY=0.368;entryDx=0;entryDy=0;entryPerimeter=0;dashed=1;dashPattern=8 8;" parent="1" source="Zmj4TJ5gTMqtPXpSD-QX-14" target="Zmj4TJ5gTMqtPXpSD-QX-27" edge="1">
          <mxGeometry relative="1" as="geometry" />
        </mxCell>
        <mxCell id="Zmj4TJ5gTMqtPXpSD-QX-48" value="&amp;lt;&amp;lt; include &amp;gt;&amp;gt;" style="edgeLabel;html=1;align=center;verticalAlign=middle;resizable=0;points=[];" parent="Zmj4TJ5gTMqtPXpSD-QX-40" vertex="1" connectable="0">
          <mxGeometry x="-0.7398" y="-2" relative="1" as="geometry">
            <mxPoint as="offset" />
          </mxGeometry>
        </mxCell>
        <mxCell id="Zmj4TJ5gTMqtPXpSD-QX-41" style="edgeStyle=orthogonalEdgeStyle;rounded=0;orthogonalLoop=1;jettySize=auto;html=1;entryX=0.19;entryY=0.901;entryDx=0;entryDy=0;entryPerimeter=0;dashed=1;dashPattern=8 8;" parent="1" source="Zmj4TJ5gTMqtPXpSD-QX-15" target="Zmj4TJ5gTMqtPXpSD-QX-27" edge="1">
          <mxGeometry relative="1" as="geometry" />
        </mxCell>
        <mxCell id="Zmj4TJ5gTMqtPXpSD-QX-47" value="&amp;lt;&amp;lt; include &amp;gt;&amp;gt;" style="edgeLabel;html=1;align=center;verticalAlign=middle;resizable=0;points=[];" parent="Zmj4TJ5gTMqtPXpSD-QX-41" vertex="1" connectable="0">
          <mxGeometry x="-0.1854" y="-2" relative="1" as="geometry">
            <mxPoint as="offset" />
          </mxGeometry>
        </mxCell>
        <mxCell id="Zmj4TJ5gTMqtPXpSD-QX-56" value="" style="whiteSpace=wrap;html=1;aspect=fixed;movable=0;resizable=0;rotatable=0;deletable=0;editable=0;locked=1;connectable=0;" parent="1" vertex="1">
          <mxGeometry x="160" y="870" width="610" height="610" as="geometry" />
        </mxCell>
        <mxCell id="Zmj4TJ5gTMqtPXpSD-QX-74" style="edgeStyle=orthogonalEdgeStyle;rounded=0;orthogonalLoop=1;jettySize=auto;html=1;entryX=0;entryY=0.5;entryDx=0;entryDy=0;" parent="1" source="Zmj4TJ5gTMqtPXpSD-QX-57" target="Zmj4TJ5gTMqtPXpSD-QX-67" edge="1">
          <mxGeometry relative="1" as="geometry" />
        </mxCell>
        <mxCell id="Zmj4TJ5gTMqtPXpSD-QX-75" style="edgeStyle=orthogonalEdgeStyle;rounded=0;orthogonalLoop=1;jettySize=auto;html=1;entryX=0;entryY=0.5;entryDx=0;entryDy=0;" parent="1" source="Zmj4TJ5gTMqtPXpSD-QX-57" target="Zmj4TJ5gTMqtPXpSD-QX-62" edge="1">
          <mxGeometry relative="1" as="geometry" />
        </mxCell>
        <mxCell id="Zmj4TJ5gTMqtPXpSD-QX-76" style="edgeStyle=orthogonalEdgeStyle;rounded=0;orthogonalLoop=1;jettySize=auto;html=1;" parent="1" source="Zmj4TJ5gTMqtPXpSD-QX-57" edge="1">
          <mxGeometry relative="1" as="geometry">
            <mxPoint x="252.5" y="1160" as="targetPoint" />
          </mxGeometry>
        </mxCell>
        <mxCell id="Zmj4TJ5gTMqtPXpSD-QX-77" style="edgeStyle=orthogonalEdgeStyle;rounded=0;orthogonalLoop=1;jettySize=auto;html=1;entryX=0;entryY=0.5;entryDx=0;entryDy=0;" parent="1" source="Zmj4TJ5gTMqtPXpSD-QX-57" target="Zmj4TJ5gTMqtPXpSD-QX-64" edge="1">
          <mxGeometry relative="1" as="geometry" />
        </mxCell>
        <mxCell id="Zmj4TJ5gTMqtPXpSD-QX-78" style="edgeStyle=orthogonalEdgeStyle;rounded=0;orthogonalLoop=1;jettySize=auto;html=1;entryX=0;entryY=0.5;entryDx=0;entryDy=0;" parent="1" source="Zmj4TJ5gTMqtPXpSD-QX-57" target="Zmj4TJ5gTMqtPXpSD-QX-65" edge="1">
          <mxGeometry relative="1" as="geometry" />
        </mxCell>
        <mxCell id="Zmj4TJ5gTMqtPXpSD-QX-79" style="edgeStyle=orthogonalEdgeStyle;rounded=0;orthogonalLoop=1;jettySize=auto;html=1;entryX=0;entryY=0.5;entryDx=0;entryDy=0;" parent="1" source="Zmj4TJ5gTMqtPXpSD-QX-57" target="Zmj4TJ5gTMqtPXpSD-QX-66" edge="1">
          <mxGeometry relative="1" as="geometry" />
        </mxCell>
        <mxCell id="Zmj4TJ5gTMqtPXpSD-QX-57" value="Admin" style="shape=umlActor;verticalLabelPosition=bottom;verticalAlign=top;html=1;outlineConnect=0;" parent="1" vertex="1">
          <mxGeometry x="102.5" y="1130" width="30" height="60" as="geometry" />
        </mxCell>
        <mxCell id="Zmj4TJ5gTMqtPXpSD-QX-59" value="GoLearning" style="rounded=0;whiteSpace=wrap;html=1;" parent="1" vertex="1">
          <mxGeometry x="360" y="870" width="200" height="50" as="geometry" />
        </mxCell>
        <mxCell id="Zmj4TJ5gTMqtPXpSD-QX-61" value="Authentication" style="ellipse;whiteSpace=wrap;html=1;" parent="1" vertex="1">
          <mxGeometry x="620" y="910" width="120" height="50" as="geometry" />
        </mxCell>
        <mxCell id="Zmj4TJ5gTMqtPXpSD-QX-91" style="edgeStyle=orthogonalEdgeStyle;rounded=0;orthogonalLoop=1;jettySize=auto;html=1;dashed=1;dashPattern=8 8;" parent="1" source="Zmj4TJ5gTMqtPXpSD-QX-62" target="Zmj4TJ5gTMqtPXpSD-QX-61" edge="1">
          <mxGeometry relative="1" as="geometry">
            <Array as="points">
              <mxPoint x="380" y="1085" />
              <mxPoint x="380" y="960" />
            </Array>
          </mxGeometry>
        </mxCell>
        <mxCell id="Zmj4TJ5gTMqtPXpSD-QX-109" value="&amp;lt;&amp;lt; include &amp;gt;&amp;gt;" style="edgeLabel;html=1;align=center;verticalAlign=middle;resizable=0;points=[];" parent="Zmj4TJ5gTMqtPXpSD-QX-91" vertex="1" connectable="0">
          <mxGeometry x="0.1244" y="3" relative="1" as="geometry">
            <mxPoint as="offset" />
          </mxGeometry>
        </mxCell>
        <mxCell id="Zmj4TJ5gTMqtPXpSD-QX-62" value="Teacher Validation" style="ellipse;whiteSpace=wrap;html=1;" parent="1" vertex="1">
          <mxGeometry x="252.5" y="1060" width="120" height="50" as="geometry" />
        </mxCell>
        <mxCell id="Zmj4TJ5gTMqtPXpSD-QX-73" style="edgeStyle=orthogonalEdgeStyle;rounded=0;orthogonalLoop=1;jettySize=auto;html=1;entryX=0;entryY=0.5;entryDx=0;entryDy=0;dashed=1;" parent="1" source="Zmj4TJ5gTMqtPXpSD-QX-63" target="Zmj4TJ5gTMqtPXpSD-QX-68" edge="1">
          <mxGeometry relative="1" as="geometry" />
        </mxCell>
        <mxCell id="Zmj4TJ5gTMqtPXpSD-QX-115" value="&amp;lt;&amp;lt; include &amp;gt;&amp;gt;" style="edgeLabel;html=1;align=center;verticalAlign=middle;resizable=0;points=[];" parent="Zmj4TJ5gTMqtPXpSD-QX-73" vertex="1" connectable="0">
          <mxGeometry x="-0.2715" y="3" relative="1" as="geometry">
            <mxPoint as="offset" />
          </mxGeometry>
        </mxCell>
        <mxCell id="Zmj4TJ5gTMqtPXpSD-QX-92" style="edgeStyle=orthogonalEdgeStyle;rounded=0;orthogonalLoop=1;jettySize=auto;html=1;dashed=1;dashPattern=8 8;" parent="1" source="Zmj4TJ5gTMqtPXpSD-QX-63" target="Zmj4TJ5gTMqtPXpSD-QX-61" edge="1">
          <mxGeometry relative="1" as="geometry">
            <Array as="points">
              <mxPoint x="680" y="1160" />
            </Array>
          </mxGeometry>
        </mxCell>
        <mxCell id="Zmj4TJ5gTMqtPXpSD-QX-114" value="&amp;lt;&amp;lt; include &amp;gt;&amp;gt;" style="edgeLabel;html=1;align=center;verticalAlign=middle;resizable=0;points=[];" parent="Zmj4TJ5gTMqtPXpSD-QX-92" vertex="1" connectable="0">
          <mxGeometry x="0.0516" y="1" relative="1" as="geometry">
            <mxPoint as="offset" />
          </mxGeometry>
        </mxCell>
        <mxCell id="Zmj4TJ5gTMqtPXpSD-QX-63" value="User Management" style="ellipse;whiteSpace=wrap;html=1;" parent="1" vertex="1">
          <mxGeometry x="252.5" y="1130" width="120" height="50" as="geometry" />
        </mxCell>
        <mxCell id="Zmj4TJ5gTMqtPXpSD-QX-80" style="edgeStyle=orthogonalEdgeStyle;rounded=0;orthogonalLoop=1;jettySize=auto;html=1;entryX=0;entryY=0.5;entryDx=0;entryDy=0;dashed=1;" parent="1" source="Zmj4TJ5gTMqtPXpSD-QX-64" target="Zmj4TJ5gTMqtPXpSD-QX-69" edge="1">
          <mxGeometry relative="1" as="geometry" />
        </mxCell>
        <mxCell id="Zmj4TJ5gTMqtPXpSD-QX-108" value="&amp;lt;&amp;lt; include &amp;gt;&amp;gt;" style="edgeLabel;html=1;align=center;verticalAlign=middle;resizable=0;points=[];" parent="Zmj4TJ5gTMqtPXpSD-QX-80" vertex="1" connectable="0">
          <mxGeometry x="0.704" y="2" relative="1" as="geometry">
            <mxPoint as="offset" />
          </mxGeometry>
        </mxCell>
        <mxCell id="Zmj4TJ5gTMqtPXpSD-QX-81" style="edgeStyle=orthogonalEdgeStyle;rounded=0;orthogonalLoop=1;jettySize=auto;html=1;entryX=0;entryY=0.5;entryDx=0;entryDy=0;dashed=1;" parent="1" source="Zmj4TJ5gTMqtPXpSD-QX-64" target="Zmj4TJ5gTMqtPXpSD-QX-70" edge="1">
          <mxGeometry relative="1" as="geometry" />
        </mxCell>
        <mxCell id="Zmj4TJ5gTMqtPXpSD-QX-107" value="&amp;lt;&amp;lt; include &amp;gt;&amp;gt;" style="edgeLabel;html=1;align=center;verticalAlign=middle;resizable=0;points=[];" parent="Zmj4TJ5gTMqtPXpSD-QX-81" vertex="1" connectable="0">
          <mxGeometry x="0.6542" y="1" relative="1" as="geometry">
            <mxPoint as="offset" />
          </mxGeometry>
        </mxCell>
        <mxCell id="Zmj4TJ5gTMqtPXpSD-QX-82" style="edgeStyle=orthogonalEdgeStyle;rounded=0;orthogonalLoop=1;jettySize=auto;html=1;entryX=0;entryY=0.5;entryDx=0;entryDy=0;dashed=1;" parent="1" source="Zmj4TJ5gTMqtPXpSD-QX-64" target="Zmj4TJ5gTMqtPXpSD-QX-71" edge="1">
          <mxGeometry relative="1" as="geometry" />
        </mxCell>
        <mxCell id="Zmj4TJ5gTMqtPXpSD-QX-106" value="&amp;lt;&amp;lt; include &amp;gt;&amp;gt;" style="edgeLabel;html=1;align=center;verticalAlign=middle;resizable=0;points=[];" parent="Zmj4TJ5gTMqtPXpSD-QX-82" vertex="1" connectable="0">
          <mxGeometry x="0.4888" relative="1" as="geometry">
            <mxPoint as="offset" />
          </mxGeometry>
        </mxCell>
        <mxCell id="Zmj4TJ5gTMqtPXpSD-QX-64" value="Category Management" style="ellipse;whiteSpace=wrap;html=1;" parent="1" vertex="1">
          <mxGeometry x="252.5" y="1200" width="120" height="50" as="geometry" />
        </mxCell>
        <mxCell id="Zmj4TJ5gTMqtPXpSD-QX-102" style="edgeStyle=orthogonalEdgeStyle;rounded=0;orthogonalLoop=1;jettySize=auto;html=1;entryX=0.5;entryY=1;entryDx=0;entryDy=0;dashed=1;" parent="1" source="Zmj4TJ5gTMqtPXpSD-QX-65" target="Zmj4TJ5gTMqtPXpSD-QX-71" edge="1">
          <mxGeometry relative="1" as="geometry">
            <Array as="points">
              <mxPoint x="580" y="1290" />
            </Array>
          </mxGeometry>
        </mxCell>
        <mxCell id="Zmj4TJ5gTMqtPXpSD-QX-116" value="&amp;lt;&amp;lt; include &amp;gt;&amp;gt;" style="edgeLabel;html=1;align=center;verticalAlign=middle;resizable=0;points=[];" parent="Zmj4TJ5gTMqtPXpSD-QX-102" vertex="1" connectable="0">
          <mxGeometry x="-0.2675" y="-2" relative="1" as="geometry">
            <mxPoint as="offset" />
          </mxGeometry>
        </mxCell>
        <mxCell id="Zmj4TJ5gTMqtPXpSD-QX-65" value="Course&lt;div&gt;Management&lt;/div&gt;" style="ellipse;whiteSpace=wrap;html=1;" parent="1" vertex="1">
          <mxGeometry x="252.5" y="1270" width="120" height="50" as="geometry" />
        </mxCell>
        <mxCell id="Zmj4TJ5gTMqtPXpSD-QX-95" style="edgeStyle=orthogonalEdgeStyle;rounded=0;orthogonalLoop=1;jettySize=auto;html=1;entryX=1;entryY=1;entryDx=0;entryDy=0;dashed=1;dashPattern=8 8;" parent="1" source="Zmj4TJ5gTMqtPXpSD-QX-66" target="Zmj4TJ5gTMqtPXpSD-QX-61" edge="1">
          <mxGeometry relative="1" as="geometry">
            <Array as="points">
              <mxPoint x="722" y="1370" />
            </Array>
          </mxGeometry>
        </mxCell>
        <mxCell id="Zmj4TJ5gTMqtPXpSD-QX-111" value="&amp;lt;&amp;lt; include &amp;gt;&amp;gt;" style="edgeLabel;html=1;align=center;verticalAlign=middle;resizable=0;points=[];" parent="Zmj4TJ5gTMqtPXpSD-QX-95" vertex="1" connectable="0">
          <mxGeometry x="-0.368" y="4" relative="1" as="geometry">
            <mxPoint as="offset" />
          </mxGeometry>
        </mxCell>
        <mxCell id="Zmj4TJ5gTMqtPXpSD-QX-99" style="edgeStyle=orthogonalEdgeStyle;rounded=0;orthogonalLoop=1;jettySize=auto;html=1;entryX=0;entryY=0.5;entryDx=0;entryDy=0;dashed=1;" parent="1" edge="1">
          <mxGeometry relative="1" as="geometry">
            <mxPoint x="320" y="1390.0039185412304" as="sourcePoint" />
            <mxPoint x="340" y="1435.2" as="targetPoint" />
            <Array as="points">
              <mxPoint x="320" y="1435.2" />
            </Array>
          </mxGeometry>
        </mxCell>
        <mxCell id="Zmj4TJ5gTMqtPXpSD-QX-118" value="&amp;lt;&amp;lt; include &amp;gt;&amp;gt;" style="edgeLabel;html=1;align=center;verticalAlign=middle;resizable=0;points=[];" parent="Zmj4TJ5gTMqtPXpSD-QX-99" vertex="1" connectable="0">
          <mxGeometry x="-0.3767" y="-4" relative="1" as="geometry">
            <mxPoint as="offset" />
          </mxGeometry>
        </mxCell>
        <mxCell id="Zmj4TJ5gTMqtPXpSD-QX-101" style="edgeStyle=orthogonalEdgeStyle;rounded=0;orthogonalLoop=1;jettySize=auto;html=1;entryX=0.5;entryY=0;entryDx=0;entryDy=0;dashed=1;" parent="1" source="Zmj4TJ5gTMqtPXpSD-QX-66" target="Zmj4TJ5gTMqtPXpSD-QX-86" edge="1">
          <mxGeometry relative="1" as="geometry">
            <Array as="points">
              <mxPoint x="540" y="1380" />
            </Array>
          </mxGeometry>
        </mxCell>
        <mxCell id="Zmj4TJ5gTMqtPXpSD-QX-117" value="&amp;lt;&amp;lt; include &amp;gt;&amp;gt;" style="edgeLabel;html=1;align=center;verticalAlign=middle;resizable=0;points=[];" parent="Zmj4TJ5gTMqtPXpSD-QX-101" vertex="1" connectable="0">
          <mxGeometry x="0.1413" y="-2" relative="1" as="geometry">
            <mxPoint as="offset" />
          </mxGeometry>
        </mxCell>
        <mxCell id="Zmj4TJ5gTMqtPXpSD-QX-66" value="Tag&amp;nbsp;&lt;div&gt;Management&lt;/div&gt;" style="ellipse;whiteSpace=wrap;html=1;" parent="1" vertex="1">
          <mxGeometry x="252.5" y="1340" width="120" height="50" as="geometry" />
        </mxCell>
        <mxCell id="Zmj4TJ5gTMqtPXpSD-QX-90" style="edgeStyle=orthogonalEdgeStyle;rounded=0;orthogonalLoop=1;jettySize=auto;html=1;entryX=0;entryY=0.5;entryDx=0;entryDy=0;dashed=1;dashPattern=8 8;" parent="1" source="Zmj4TJ5gTMqtPXpSD-QX-67" target="Zmj4TJ5gTMqtPXpSD-QX-61" edge="1">
          <mxGeometry relative="1" as="geometry">
            <Array as="points">
              <mxPoint x="313" y="935" />
            </Array>
          </mxGeometry>
        </mxCell>
        <mxCell id="Zmj4TJ5gTMqtPXpSD-QX-110" value="&amp;lt;&amp;lt; include &amp;gt;&amp;gt;" style="edgeLabel;html=1;align=center;verticalAlign=middle;resizable=0;points=[];" parent="Zmj4TJ5gTMqtPXpSD-QX-90" vertex="1" connectable="0">
          <mxGeometry x="-0.4384" y="3" relative="1" as="geometry">
            <mxPoint as="offset" />
          </mxGeometry>
        </mxCell>
        <mxCell id="Zmj4TJ5gTMqtPXpSD-QX-67" value="Global&lt;div&gt;statistics&lt;/div&gt;" style="ellipse;whiteSpace=wrap;html=1;" parent="1" vertex="1">
          <mxGeometry x="252.5" y="990" width="120" height="50" as="geometry" />
        </mxCell>
        <mxCell id="Zmj4TJ5gTMqtPXpSD-QX-68" value="Active /&lt;div&gt;Suspension /&lt;/div&gt;&lt;div&gt;deletion&lt;/div&gt;" style="ellipse;whiteSpace=wrap;html=1;" parent="1" vertex="1">
          <mxGeometry x="417.5" y="970" width="120" height="50" as="geometry" />
        </mxCell>
        <mxCell id="Zmj4TJ5gTMqtPXpSD-QX-69" value="Create" style="ellipse;whiteSpace=wrap;html=1;" parent="1" vertex="1">
          <mxGeometry x="520" y="1030" width="120" height="50" as="geometry" />
        </mxCell>
        <mxCell id="Zmj4TJ5gTMqtPXpSD-QX-70" value="Update" style="ellipse;whiteSpace=wrap;html=1;" parent="1" vertex="1">
          <mxGeometry x="520" y="1101" width="120" height="50" as="geometry" />
        </mxCell>
        <mxCell id="Zmj4TJ5gTMqtPXpSD-QX-105" value="" style="edgeStyle=orthogonalEdgeStyle;rounded=0;orthogonalLoop=1;jettySize=auto;html=1;" parent="1" source="Zmj4TJ5gTMqtPXpSD-QX-71" target="Zmj4TJ5gTMqtPXpSD-QX-70" edge="1">
          <mxGeometry relative="1" as="geometry" />
        </mxCell>
        <mxCell id="Zmj4TJ5gTMqtPXpSD-QX-71" value="Delete" style="ellipse;whiteSpace=wrap;html=1;" parent="1" vertex="1">
          <mxGeometry x="520" y="1171" width="120" height="50" as="geometry" />
        </mxCell>
        <mxCell id="Zmj4TJ5gTMqtPXpSD-QX-86" value="Create" style="ellipse;whiteSpace=wrap;html=1;" parent="1" vertex="1">
          <mxGeometry x="480" y="1410" width="120" height="50" as="geometry" />
        </mxCell>
        <mxCell id="Zmj4TJ5gTMqtPXpSD-QX-87" value="Update" style="ellipse;whiteSpace=wrap;html=1;" parent="1" vertex="1">
          <mxGeometry x="340" y="1410" width="120" height="50" as="geometry" />
        </mxCell>
        <mxCell id="Zmj4TJ5gTMqtPXpSD-QX-88" value="Delete" style="ellipse;whiteSpace=wrap;html=1;" parent="1" vertex="1">
          <mxGeometry x="180" y="1410" width="120" height="50" as="geometry" />
        </mxCell>
        <mxCell id="Zmj4TJ5gTMqtPXpSD-QX-93" style="edgeStyle=orthogonalEdgeStyle;rounded=0;orthogonalLoop=1;jettySize=auto;html=1;entryX=0.628;entryY=1;entryDx=0;entryDy=0;entryPerimeter=0;dashed=1;dashPattern=8 8;" parent="1" source="Zmj4TJ5gTMqtPXpSD-QX-64" target="Zmj4TJ5gTMqtPXpSD-QX-61" edge="1">
          <mxGeometry relative="1" as="geometry">
            <Array as="points">
              <mxPoint x="695" y="1240" />
            </Array>
          </mxGeometry>
        </mxCell>
        <mxCell id="Zmj4TJ5gTMqtPXpSD-QX-103" value="&amp;lt;&amp;lt; include &amp;gt;&amp;gt;" style="edgeLabel;html=1;align=center;verticalAlign=middle;resizable=0;points=[];" parent="Zmj4TJ5gTMqtPXpSD-QX-93" vertex="1" connectable="0">
          <mxGeometry x="-0.6135" y="1" relative="1" as="geometry">
            <mxPoint as="offset" />
          </mxGeometry>
        </mxCell>
        <mxCell id="Zmj4TJ5gTMqtPXpSD-QX-113" value="&amp;lt;&amp;lt; include &amp;gt;&amp;gt;" style="edgeLabel;html=1;align=center;verticalAlign=middle;resizable=0;points=[];" parent="Zmj4TJ5gTMqtPXpSD-QX-93" vertex="1" connectable="0">
          <mxGeometry x="-0.095" y="-2" relative="1" as="geometry">
            <mxPoint as="offset" />
          </mxGeometry>
        </mxCell>
        <mxCell id="Zmj4TJ5gTMqtPXpSD-QX-94" style="edgeStyle=orthogonalEdgeStyle;rounded=0;orthogonalLoop=1;jettySize=auto;html=1;entryX=0.748;entryY=0.856;entryDx=0;entryDy=0;entryPerimeter=0;dashed=1;dashPattern=8 8;" parent="1" source="Zmj4TJ5gTMqtPXpSD-QX-65" target="Zmj4TJ5gTMqtPXpSD-QX-61" edge="1">
          <mxGeometry relative="1" as="geometry">
            <Array as="points">
              <mxPoint x="710" y="1300" />
            </Array>
          </mxGeometry>
        </mxCell>
        <mxCell id="Zmj4TJ5gTMqtPXpSD-QX-112" value="&amp;lt;&amp;lt; include &amp;gt;&amp;gt;" style="edgeLabel;html=1;align=center;verticalAlign=middle;resizable=0;points=[];" parent="Zmj4TJ5gTMqtPXpSD-QX-94" vertex="1" connectable="0">
          <mxGeometry x="-0.263" y="2" relative="1" as="geometry">
            <mxPoint as="offset" />
          </mxGeometry>
        </mxCell>
        <mxCell id="Zmj4TJ5gTMqtPXpSD-QX-100" style="edgeStyle=orthogonalEdgeStyle;rounded=0;orthogonalLoop=1;jettySize=auto;html=1;entryX=0.994;entryY=0.557;entryDx=0;entryDy=0;entryPerimeter=0;dashed=1;" parent="1" source="Zmj4TJ5gTMqtPXpSD-QX-66" target="Zmj4TJ5gTMqtPXpSD-QX-88" edge="1">
          <mxGeometry relative="1" as="geometry">
            <Array as="points">
              <mxPoint x="313" y="1410" />
              <mxPoint x="313" y="1410" />
              <mxPoint x="313" y="1438" />
            </Array>
          </mxGeometry>
        </mxCell>
      </root>
    </mxGraphModel>
  </diagram>
</mxfile>
